<?xml version="1.0" encoding="UTF-8"?>
<svg version="1.1" xmlns="http://www.w3.org/2000/svg" width="69" height="69">
<path d="M0 0 C22.77 0 45.54 0 69 0 C69 22.77 69 45.54 69 69 C46.23 69 23.46 69 0 69 C0 46.23 0 23.46 0 0 Z " fill="#FDFDFF" transform="translate(0,0)"/>
<path d="M0 0 C2.6875 1.4375 2.6875 1.4375 4 4 C3.48416477 11.62810883 1.9173676 19.07196566 0.4375 26.5625 C0.20353516 27.76197266 -0.03042969 28.96144531 -0.27148438 30.19726562 C-0.84443147 33.1321579 -1.42067727 36.06636078 -2 39 C0.475 38.505 0.475 38.505 3 38 C-1.73200613 42.88973966 -1.73200613 42.88973966 -5.875 43.25 C-9 43 -9 43 -11.375 42 C-13.86498941 38.93539765 -13.32373448 35.76035748 -13 32 C-12.3108223 27.88334966 -11.41630925 23.8213849 -10.5 19.75 C-10.02764829 17.62058741 -9.55875031 15.49040499 -9.09375 13.359375 C-8.88427734 12.42577148 -8.67480469 11.49216797 -8.45898438 10.53027344 C-7.8810104 7.77263246 -7.8810104 7.77263246 -8 4 C-11.60992379 4.65585189 -11.60992379 4.65585189 -15 6 C-12.0032495 -0.91557807 -6.77884237 -0.85289357 0 0 Z " fill="#9159FF" transform="translate(61,14)"/>
<path d="M0 0 C2.82979069 0.52438525 3.69339677 1.08958669 5.33984375 3.43359375 C6.70000074 7.82180835 5.95483496 11.48875355 4.94140625 15.8515625 C4.70978287 16.89924553 4.70978287 16.89924553 4.47348022 17.96809387 C4.14680924 19.43737363 3.81538609 20.90560397 3.47949219 22.37280273 C2.96462142 24.62206504 2.4634734 26.87404034 1.96484375 29.12695312 C1.64531953 30.55616604 1.32503344 31.9852089 1.00390625 33.4140625 C0.85281403 34.08801559 0.7017218 34.76196869 0.54605103 35.4563446 C-0.54203745 40.19735615 -0.54203745 40.19735615 -1.66015625 42.43359375 C-5.29015625 42.43359375 -8.92015625 42.43359375 -12.66015625 42.43359375 C-12.0033747 34.12945915 -10.36936516 26.36852263 -8.38867188 18.29296875 C-7.26575858 13.57869719 -6.34030389 9.32159392 -6.66015625 4.43359375 C-8.31015625 4.43359375 -9.96015625 4.43359375 -11.66015625 4.43359375 C-8.46656479 -0.21163019 -5.20208599 -0.00782269 0 0 Z " fill="#8F56FF" transform="translate(39.66015625,13.56640625)"/>
<path d="M0 0 C3.17612895 0.5877534 4.98436845 2.12398517 7.1953125 4.40625 C6.89367187 5.27894531 6.59203125 6.15164062 6.28125 7.05078125 C2.57690396 18.49694403 0.64334127 30.63831477 -1.8046875 42.40625 C-5.7646875 42.40625 -9.7246875 42.40625 -13.8046875 42.40625 C-12.2072097 33.63222419 -10.51938562 24.8830015 -8.6796875 16.15625 C-8.50920898 15.34696045 -8.33873047 14.5376709 -8.16308594 13.70385742 C-7.4307463 10.25509101 -6.6746807 6.82333173 -5.8046875 3.40625 C-7.4546875 3.73625 -9.1046875 4.06625 -10.8046875 4.40625 C-7.72584488 0.12264288 -4.97176329 -0.19690152 0 0 Z " fill="#9058FF" transform="translate(20.8046875,13.59375)"/>
</svg>
