<?xml version="1.0" encoding="UTF-8"?>
<svg version="1.1" xmlns="http://www.w3.org/2000/svg" width="378" height="142">
<path d="M0 0 C124.74 0 249.48 0 378 0 C378 46.86 378 93.72 378 142 C253.26 142 128.52 142 0 142 C0 95.14 0 48.28 0 0 Z " fill="#FEFDFF" transform="translate(0,0)"/>
<path d="M0 0 C-1.33333333 8 -2.66666667 16 -4 24 C-3.19755859 23.26910156 -3.19755859 23.26910156 -2.37890625 22.5234375 C0.61732394 20.6046694 2.52867452 20.5987262 6.0625 20.625 C7.10535156 20.61726563 8.14820313 20.60953125 9.22265625 20.6015625 C12 21 12 21 13.84375 22.25390625 C16.04457451 25.57744867 15.57508792 29.18350746 15 33 C12.44075422 38.42560106 9.17668154 40.41165923 4 43 C4.47050781 43.53109375 4.94101563 44.0621875 5.42578125 44.609375 C7.3401573 47.51656642 7.70245739 49.81739077 8.1875 53.25 C8.34605469 54.32765625 8.50460938 55.4053125 8.66796875 56.515625 C8.77753906 57.33546875 8.88710937 58.1553125 9 59 C10.65 59 12.3 59 14 59 C13 62 13 62 11.4375 63.1875 C7.88636566 64.37121145 4.69566692 64.69198702 1 64 C-2.05940668 61.74570034 -2.8430256 59.83378431 -3.5390625 56.13671875 C-3.84063521 54.04359972 -4.10023743 51.9438965 -4.3125 49.83984375 C-4.87749064 46.42800759 -4.87749064 46.42800759 -9 43 C-10.32 49.6 -11.64 56.2 -13 63 C-16.63 63 -20.26 63 -24 63 C-23.4775086 54.5771868 -22.22211134 46.8022595 -20.1875 38.625 C-17.34777483 26.81537649 -15.0392054 14.97133526 -13 3 C-13.66 3 -14.32 3 -15 3 C-15 2.34 -15 1.68 -15 1 C-13.25021843 0.83105557 -11.50016388 0.66493691 -9.75 0.5 C-8.77546875 0.4071875 -7.8009375 0.314375 -6.796875 0.21875 C-4.53697847 0.04199832 -2.26679807 0 0 0 Z " fill="#9058FF" transform="translate(154,55)"/>
<path d="M0 0 C2.6875 2.5 2.6875 2.5 4 5 C4.33 3.68 4.66 2.36 5 1 C8.63 0.67 12.26 0.34 16 0 C15.40861205 8.78098814 13.85490768 17.10587721 11.9375 25.6875 C11.65583984 26.97333984 11.37417969 28.25917969 11.08398438 29.58398438 C10.39527758 32.72402044 9.70050831 35.8625796 9 39 C11.475 38.505 11.475 38.505 14 38 C9.26799387 42.88973966 9.26799387 42.88973966 5.125 43.25 C1.66122621 42.9728981 0.42730771 42.42730771 -2 40 C-2.33 39.01 -2.66 38.02 -3 37 C-3.763125 37.804375 -4.52625 38.60875 -5.3125 39.4375 C-8.48562078 42.46303377 -10.05569217 42.91256409 -14.375 43.3125 C-18.59334314 42.94884973 -20.04884992 41.95115008 -23 39 C-26.65323414 31.69353172 -23.48439326 21.49757387 -21.20703125 14.21484375 C-17.20465631 3.55479657 -11.96146822 -2.03290507 0 0 Z " fill="#9059FF" transform="translate(266,76)"/>
<path d="M0 0 C3.00873047 0.57414306 4.37273423 1.96288023 6.12890625 4.40625 C6.72703125 3.74625 7.32515625 3.08625 7.94140625 2.40625 C12.57992475 -0.50419298 16.78807441 -0.38254978 22.12890625 0.40625 C24.81640625 1.90625 24.81640625 1.90625 26.12890625 4.40625 C26.75326279 12.00711228 24.85578799 19.039777 23.12890625 26.40625 C22.69964844 28.28376953 22.69964844 28.28376953 22.26171875 30.19921875 C21.55846637 33.27008748 20.84733789 36.33890357 20.12890625 39.40625 C22.60390625 38.91125 22.60390625 38.91125 25.12890625 38.40625 C25.12890625 39.06625 25.12890625 39.72625 25.12890625 40.40625 C22.22520819 42.69401211 20.25762059 43.39044298 16.56640625 43.84375 C13.12890625 43.40625 13.12890625 43.40625 10.62890625 41.96875 C8.323478 38.03031006 9.30985566 34.68478702 10.12890625 30.40625 C10.36833036 29.0483781 10.60651501 27.69028732 10.84375 26.33203125 C12.88750669 14.88904913 12.88750669 14.88904913 14.12890625 12.40625 C14.19785345 11.03282169 14.21358333 9.65622898 14.19140625 8.28125 C14.17078125 7.0025 14.15015625 5.72375 14.12890625 4.40625 C11.79818746 3.98754447 11.79818746 3.98754447 9.12890625 4.40625 C5.41914161 8.14423584 4.31682843 11.51484159 3.2421875 16.60546875 C3.09484665 17.28172806 2.9475058 17.95798737 2.79570007 18.65473938 C2.33118648 20.79851844 1.88567385 22.94569326 1.44140625 25.09375 C0.98254696 27.2515184 0.51982533 29.40840993 0.05497742 31.56489563 C-0.36292554 33.51277405 -0.77094515 35.46276505 -1.1784668 37.4128418 C-1.87109375 40.40625 -1.87109375 40.40625 -2.87109375 42.40625 C-6.50109375 42.40625 -10.13109375 42.40625 -13.87109375 42.40625 C-12.27361595 33.63222419 -10.58579187 24.8830015 -8.74609375 16.15625 C-8.57561523 15.34696045 -8.40513672 14.5376709 -8.22949219 13.70385742 C-7.49715255 10.25509101 -6.74108695 6.82333173 -5.87109375 3.40625 C-7.52109375 3.73625 -9.17109375 4.06625 -10.87109375 4.40625 C-7.77912252 0.10437699 -4.99208529 -0.19738064 0 0 Z " fill="#9058FF" transform="translate(210.87109375,75.59375)"/>
<path d="M0 0 C2.42478005 2.42478005 3.54569748 4.86290029 5.0625 7.9375 C5.58972656 8.99839844 6.11695313 10.05929688 6.66015625 11.15234375 C8 14 8 14 9 17 C10.78228936 18.14209817 10.78228936 18.14209817 13 19 C13.7425 19.37125 14.485 19.7425 15.25 20.125 C26.43947974 23.68528901 40.32152821 18.26843804 51.29296875 15.453125 C54.01993318 14.99666342 55.40263415 15.25047344 58 16 C57.04222656 16.32685791 56.08445312 16.65371582 55.09765625 16.99047852 C51.50511949 18.22213621 47.92168728 19.47866779 44.34033203 20.74243164 C42.79676402 21.28330844 41.25088635 21.81764445 39.70263672 22.3449707 C26.99571783 26.45663933 26.99571783 26.45663933 17 35 C14.44810341 42.65568977 15.73723291 52.10770571 17 60 C14.57648317 57.57648317 13.90815126 55.44675445 12.6875 52.25 C10.13491333 46.01780739 7.91362322 41.98656129 2.25 38.125 C-4.71773731 35.71309093 -11.69117065 37.09381796 -18.6875 38.8125 C-20.25514863 39.17733995 -21.82285778 39.54191998 -23.390625 39.90625 C-24.92709311 40.27079214 -26.46355173 40.63537427 -28 41 C-30.64313711 41.6179389 -33.28863722 42.21897888 -35.9375 42.8125 C-37.03964844 43.06644531 -38.14179687 43.32039063 -39.27734375 43.58203125 C-42 44 -42 44 -45 43 C-42.39209205 42.01681163 -39.78379806 41.03466544 -37.17504883 40.05371094 C-34.96859544 39.22382198 -32.76270577 38.39243274 -30.55737305 37.55957031 C-21.1649586 34.02500714 -21.1649586 34.02500714 -16.46484375 32.46484375 C-15.25957031 32.06394531 -14.05429688 31.66304687 -12.8125 31.25 C-11.27529297 30.76273438 -11.27529297 30.76273438 -9.70703125 30.265625 C-5.05526132 28.09077153 -1.93019294 24.73159717 0 20 C0.27267924 17.68285568 0.27267924 17.68285568 0.1953125 15.234375 C0.18564453 13.90019531 0.18564453 13.90019531 0.17578125 12.5390625 C0.15902344 11.61867188 0.14226562 10.69828125 0.125 9.75 C0.11597656 8.81414063 0.10695312 7.87828125 0.09765625 6.9140625 C0.07413636 4.60911343 0.04126853 2.3046884 0 0 Z " fill="#9058FF" transform="translate(79,15)"/>
<path d="M0 0 C-0.60457031 0.639375 -1.20914063 1.27875 -1.83203125 1.9375 C-4.56831838 5.80281371 -5.53980541 9.45350566 -6.6875 14 C-6.89955078 14.7940625 -7.11160156 15.588125 -7.33007812 16.40625 C-8.93391282 22.47754853 -10.13194952 27.99259347 -10.0625 34.3125 C-10.04896484 35.91544922 -10.04896484 35.91544922 -10.03515625 37.55078125 C-10.02355469 38.35902344 -10.01195313 39.16726562 -10 40 C-7.16848027 40.41809201 -7.16848027 40.41809201 -4 40 C3.63930557 32.78657906 5.45124424 18.54539175 6.1875 8.421875 C6.34273161 3.4219471 6.34273161 3.4219471 4 -1 C8.92966071 -0.83289286 11.11463033 -0.71936286 15 2.4375 C18.8859954 7.91976287 17.2942507 14.8978169 16.25 21.125 C14.37283763 29.38451445 11.1377672 35.23103027 4 40 C-2.09198462 42.97830359 -9.06834836 42.95944963 -15.4375 40.875 C-18.73129958 38.46490275 -19.72597676 36.8928488 -21 33 C-22.21095997 23.41323354 -19.81035489 13.64090841 -14.39453125 5.65625 C-10.55805615 1.09976417 -5.8282156 -1.80875657 0 0 Z " fill="#8F57FF" transform="translate(110,77)"/>
<path d="M0 0 C3.51183473 0.90609838 4.45975814 2.64678428 6.4375 5.62890625 C6.9675293 8.53564453 6.9675293 8.53564453 7.01171875 11.69921875 C7.03943359 12.84261719 7.06714844 13.98601562 7.09570312 15.1640625 C7.10537109 16.34871094 7.11503906 17.53335938 7.125 18.75390625 C7.16704087 21.11074274 7.21245447 23.46752219 7.26171875 25.82421875 C7.27291748 26.86594238 7.28411621 27.90766602 7.2956543 28.98095703 C7.3259332 31.73592015 7.3259332 31.73592015 8.4375 34.62890625 C7.36322214 37.45225963 5.87916389 39.9640124 4.4375 42.62890625 C1.1375 42.62890625 -2.1625 42.62890625 -5.5625 42.62890625 C-5.8925 33.38890625 -6.2225 24.14890625 -6.5625 14.62890625 C-7.2225 15.28890625 -7.8825 15.94890625 -8.5625 16.62890625 C-8.418125 15.94828125 -8.27375 15.26765625 -8.125 14.56640625 C-7.49304091 11.26617543 -7.01936059 7.95746199 -6.5625 4.62890625 C-8.2125 4.62890625 -9.8625 4.62890625 -11.5625 4.62890625 C-8.40854148 0.04133023 -5.148106 0.13341128 0 0 Z " fill="#9058FF" transform="translate(323.5625,75.37109375)"/>
<path d="M0 0 C2.6875 1.4375 2.6875 1.4375 4 4 C3.48416477 11.62810883 1.9173676 19.07196566 0.4375 26.5625 C0.20353516 27.76197266 -0.03042969 28.96144531 -0.27148438 30.19726562 C-0.84443147 33.1321579 -1.42067727 36.06636078 -2 39 C0.475 38.505 0.475 38.505 3 38 C-1.73200613 42.88973966 -1.73200613 42.88973966 -5.875 43.25 C-9 43 -9 43 -11.375 42 C-13.86498941 38.93539765 -13.32373448 35.76035748 -13 32 C-12.3108223 27.88334966 -11.41630925 23.8213849 -10.5 19.75 C-10.02764829 17.62058741 -9.55875031 15.49040499 -9.09375 13.359375 C-8.88427734 12.42577148 -8.67480469 11.49216797 -8.45898438 10.53027344 C-7.8810104 7.77263246 -7.8810104 7.77263246 -8 4 C-11.60992379 4.65585189 -11.60992379 4.65585189 -15 6 C-12.0032495 -0.91557807 -6.77884237 -0.85289357 0 0 Z " fill="#9159FF" transform="translate(80,76)"/>
<path d="M0 0 C0.98484375 0.02707031 1.9696875 0.05414063 2.984375 0.08203125 C3.73203125 0.11683594 4.4796875 0.15164062 5.25 0.1875 C5.91 1.5075 6.57 2.8275 7.25 4.1875 C6.321875 4.105 5.39375 4.0225 4.4375 3.9375 C1.26244415 3.84131436 1.26244415 3.84131436 -0.31640625 5.73828125 C-2.15814777 8.88479877 -3.01735793 12.11552864 -3.875 15.625 C-4.04386719 16.28048828 -4.21273438 16.93597656 -4.38671875 17.61132812 C-5.81001544 23.19804783 -6.88208581 28.22437797 -6.8125 34 C-6.80347656 34.97582031 -6.79445312 35.95164063 -6.78515625 36.95703125 C-6.77355469 37.69308594 -6.76195312 38.42914063 -6.75 39.1875 C-3.285 38.6925 -3.285 38.6925 0.25 38.1875 C0.25 38.8475 0.25 39.5075 0.25 40.1875 C-4.27594463 42.83683344 -7.50303174 43.85529596 -12.75 43.1875 C-15.50329021 41.39187595 -17.27627461 40.13495078 -18.75 37.1875 C-19.91471341 25.80767715 -17.3920945 14.33474534 -11.09375 4.73828125 C-7.654953 0.76966959 -5.25784239 -0.18778009 0 0 Z " fill="#9058FF" transform="translate(260.75,75.8125)"/>
<path d="M0 0 C-0.51535313 8.76779915 -2.14996823 17.12770003 -4.0625 25.6875 C-4.34416016 26.97333984 -4.62582031 28.25917969 -4.91601562 29.58398438 C-5.60472242 32.72402044 -6.29949169 35.8625796 -7 39 C-4.525 38.505 -4.525 38.505 -2 38 C-6.70219436 42.85893417 -6.70219436 42.85893417 -10.875 43.3125 C-14 43 -14 43 -16.1953125 41.296875 C-19.01212066 37.71184643 -18.13980521 35.12952334 -17.62890625 30.7734375 C-16.7232521 25.33951261 -15.59796647 19.95832553 -14.37304688 14.58764648 C-12.57631527 7.70793077 -12.57631527 7.70793077 -14 1 C-12.41693353 0.83081732 -10.83353281 0.66476064 -9.25 0.5 C-7.92742187 0.36078125 -7.92742187 0.36078125 -6.578125 0.21875 C-4 0 -4 0 0 0 Z " fill="#9059FF" transform="translate(193,76)"/>
<path d="M0 0 C2.82979069 0.52438525 3.69339677 1.08958669 5.33984375 3.43359375 C6.70000074 7.82180835 5.95483496 11.48875355 4.94140625 15.8515625 C4.70978287 16.89924553 4.70978287 16.89924553 4.47348022 17.96809387 C4.14680924 19.43737363 3.81538609 20.90560397 3.47949219 22.37280273 C2.96462142 24.62206504 2.4634734 26.87404034 1.96484375 29.12695312 C1.64531953 30.55616604 1.32503344 31.9852089 1.00390625 33.4140625 C0.85281403 34.08801559 0.7017218 34.76196869 0.54605103 35.4563446 C-0.54203745 40.19735615 -0.54203745 40.19735615 -1.66015625 42.43359375 C-5.29015625 42.43359375 -8.92015625 42.43359375 -12.66015625 42.43359375 C-12.0033747 34.12945915 -10.36936516 26.36852263 -8.38867188 18.29296875 C-7.26575858 13.57869719 -6.34030389 9.32159392 -6.66015625 4.43359375 C-8.31015625 4.43359375 -9.96015625 4.43359375 -11.66015625 4.43359375 C-8.46656479 -0.21163019 -5.20208599 -0.00782269 0 0 Z " fill="#8F56FF" transform="translate(58.66015625,75.56640625)"/>
<path d="M0 0 C3.17612895 0.5877534 4.98436845 2.12398517 7.1953125 4.40625 C6.89367187 5.27894531 6.59203125 6.15164062 6.28125 7.05078125 C2.57690396 18.49694403 0.64334127 30.63831477 -1.8046875 42.40625 C-5.7646875 42.40625 -9.7246875 42.40625 -13.8046875 42.40625 C-12.2072097 33.63222419 -10.51938562 24.8830015 -8.6796875 16.15625 C-8.50920898 15.34696045 -8.33873047 14.5376709 -8.16308594 13.70385742 C-7.4307463 10.25509101 -6.6746807 6.82333173 -5.8046875 3.40625 C-7.4546875 3.73625 -9.1046875 4.06625 -10.8046875 4.40625 C-7.72584488 0.12264288 -4.97176329 -0.19690152 0 0 Z " fill="#9058FF" transform="translate(39.8046875,75.59375)"/>
<path d="M0 0 C0.88429687 -0.02578125 1.76859375 -0.0515625 2.6796875 -0.078125 C5.125 0.25 5.125 0.25 6.91796875 1.49609375 C9.19095663 4.79891432 8.7025274 8.41731816 8.125 12.25 C5.56575422 17.67560106 2.30168154 19.66165923 -2.875 22.25 C-2.40449219 22.78109375 -1.93398437 23.3121875 -1.44921875 23.859375 C0.4651573 26.76656642 0.82745739 29.06739077 1.3125 32.5 C1.47105469 33.57765625 1.62960938 34.6553125 1.79296875 35.765625 C1.90253906 36.58546875 2.01210937 37.4053125 2.125 38.25 C3.775 38.25 5.425 38.25 7.125 38.25 C6.125 41.25 6.125 41.25 4.5625 42.4375 C1.01136566 43.62121145 -2.17933308 43.94198702 -5.875 43.25 C-9.84774187 40.32271652 -10.24588999 36.88891914 -11 32.25 C-11.12632812 31.239375 -11.25265625 30.22875 -11.3828125 29.1875 C-11.86726078 26.29618962 -12.68713828 23.92023462 -13.875 21.25 C-12.946875 20.8375 -12.01875 20.425 -11.0625 20 C-6.85309685 17.68895513 -5.37599423 15.75298268 -3.875 11.25 C-3.531509 5.91704568 -3.531509 5.91704568 -5.875 1.25 C-4.21733202 -0.40766798 -2.27153595 0.03950497 0 0 Z " fill="#8F57FF" transform="translate(160.875,75.75)"/>
<path d="M0 0 C3.12771475 0.74888945 4.22362742 2.02495909 6.21875 4.53125 C6.7487793 7.61572266 6.7487793 7.61572266 6.79296875 11.1953125 C6.82068359 12.48179688 6.84839844 13.76828125 6.87695312 15.09375 C6.88759389 16.44791007 6.89734949 17.80207737 6.90625 19.15625 C6.94449818 21.81528901 6.99358201 24.4739372 7.04296875 27.1328125 C7.05416748 28.31182129 7.06536621 29.49083008 7.0769043 30.70556641 C7.02655521 33.48170089 7.02655521 33.48170089 8.21875 35.53125 C7.44140625 37.2578125 7.44140625 37.2578125 6.28125 39.15625 C5.600625 40.27 4.92 41.38375 4.21875 42.53125 C1.24875 42.53125 -1.72125 42.53125 -4.78125 42.53125 C-5.11125 29.99125 -5.44125 17.45125 -5.78125 4.53125 C-7.43125 4.53125 -9.08125 4.53125 -10.78125 4.53125 C-7.6818383 0.21902503 -4.96047637 0.06795173 0 0 Z " fill="#8C53FF" transform="translate(299.78125,75.46875)"/>
<path d="M0 0 C0.78375 0.04125 1.5675 0.0825 2.375 0.125 C6.16744642 7.70989283 2.66035489 19.51905326 0.375 27.125 C-1.06524681 30.29697214 -2.6882199 33.23131273 -4.625 36.125 C-6.605 36.125 -8.585 36.125 -10.625 36.125 C-13.60314454 30.16871091 -11.23890383 22.5965198 -9.8125 16.4375 C-9.6472583 15.71296631 -9.4820166 14.98843262 -9.31176758 14.24194336 C-5.9092942 0.28139496 -5.9092942 0.28139496 0 0 Z " fill="#FCFAFF" transform="translate(264.625,78.875)"/>
<path d="M0 0 C1 1 1 1 1.25 4.1875 C0.9356714 8.98101112 -0.56036494 11.91252916 -3.25 15.8125 C-5.96729978 17.65638199 -8.7887783 17.69705456 -12 18 C-10.53917439 6.06992418 -10.53917439 6.06992418 -7.1875 1.5625 C-4.55451034 -0.3182069 -3.16941597 -0.42829946 0 0 Z " fill="#FAF7FF" transform="translate(157,79)"/>
<path d="M0 0 C2.875 0.5625 2.875 0.5625 4.8125 1.625 C6.58506293 4.85732063 5.84409328 7.11010518 4.875 10.5625 C2.75 13.0625 2.75 13.0625 -0.125 14.5625 C-3.9375 14.3125 -3.9375 14.3125 -7.125 13.5625 C-8.65060954 7.69477101 -8.65060954 7.69477101 -7.2890625 4.76171875 C-5.10920341 1.85292589 -3.58165182 0.64469733 0 0 Z " fill="#935DFF" transform="translate(192.125,56.4375)"/>
<path d="M0 0 C4.29 0 8.58 0 13 0 C12.67 0.66 12.34 1.32 12 2 C11.34 2 10.68 2 10 2 C9.71382813 2.71542969 9.42765625 3.43085937 9.1328125 4.16796875 C7.421875 8.4453125 5.7109375 12.72265625 4 17 C3 14 3 14 4 11 C4.2685679 9.04623879 4.2685679 9.04623879 4.3125 7 C4.34988281 6.319375 4.38726562 5.63875 4.42578125 4.9375 C4.08563405 2.38446159 4.08563405 2.38446159 0 0 Z " fill="#A477FF" transform="translate(335,76)"/>
<path d="M0 0 C0 0.66 0 1.32 0 2 C-4.29 2.66 -8.58 3.32 -13 4 C-10.96180154 1.96180154 -9.70582202 1.32158941 -7.0625 0.3125 C-6.37285156 0.04050781 -5.68320312 -0.23148438 -4.97265625 -0.51171875 C-3 -1 -3 -1 0 0 Z " fill="#AB81FF" transform="translate(47,55)"/>
</svg>
